<svg width="39" height="39" viewBox="0 0 39 39" fill="none" xmlns="http://www.w3.org/2000/svg">
	<path d="M24.4859 25.3908L24.9553 25.8602L30.5347 31.4394L31.4393 30.5349L25.8599 24.9557L25.3903 24.4862L25.7995 23.9632C27.2168 22.1518 27.9871 19.9182 27.9877 17.6182L24.4859 25.3908ZM24.4859 25.3908L23.9629 25.7997M24.4859 25.3908L23.9629 25.7997M23.9629 25.7997C22.1516 27.2162 19.9183 27.986 17.6188 27.9865L23.9629 25.7997ZM17.6187 27.9865C11.9023 27.9864 7.25 23.3343 7.25 17.6182C7.25 11.9022 11.9024 7.25 17.6188 7.25C23.3352 7.25 27.9876 11.9021 27.9877 17.6181L17.6187 27.9865ZM26.708 17.6182C26.708 12.6052 22.632 8.52956 17.6188 8.52956C12.6056 8.52956 8.52971 12.6052 8.52971 17.6182C8.52971 22.6313 12.6056 26.7069 17.6188 26.7069C22.632 26.7069 26.708 22.6313 26.708 17.6182Z" fill="currentColor" stroke="currentColor" stroke-width="1.5" />
</svg>
